<svg width="52" height="62" viewBox="0 0 52 62" fill="none" xmlns="http://www.w3.org/2000/svg">
<path d="M18.7754 56.1977C19.9916 59.1607 22.6886 61.25 25.8716 61.25C29.0547 61.25 31.7517 59.1607 32.968 56.1977C30.7235 56.3167 28.3895 56.3967 25.8716 56.3967C23.3539 56.3967 21.0199 56.3166 18.7754 56.1977Z" fill="black"/>
<path d="M50.5764 43.3533C47.6241 39.3201 42.6693 31.3922 42.6693 23.6366C42.6693 15.9466 38.1087 9.02807 31.4693 6.48493C31.3887 3.21379 28.9067 0.583328 25.8715 0.583328C22.834 0.583328 20.3544 3.21379 20.2737 6.48493C13.6321 9.02807 9.07151 15.9466 9.07151 23.6366C9.07151 31.3947 4.1189 39.3201 1.16436 43.3533C0.178784 44.7 -0.125934 46.4788 0.351269 48.1119C0.817206 49.7062 1.97745 50.9415 3.45587 51.4122C6.04532 52.2397 10.2901 53.1716 16.7637 53.6472C19.5659 53.851 22.5788 53.9699 25.8716 53.9699C29.1621 53.9699 32.175 53.851 34.9772 53.6472C41.453 53.1716 45.6956 52.2397 48.2872 51.4122C49.7656 50.9415 50.9237 49.7063 51.3896 48.1119C51.8667 46.4788 51.5598 44.7 50.5764 43.3533Z" fill="#F14F22"/>
</svg>
