<svg width="56" height="56" viewBox="0 0 56 56" fill="none" xmlns="http://www.w3.org/2000/svg">
<path d="M43.0001 6H13.0001C11.6981 6 10.5981 6 10.1841 8H39.0001C41.7571 8 44.0001 9.951 44.0001 12.708V49.524C45.1611 49.11 46.0001 48.01 46.0001 46.708V8.708C46.0001 7.053 44.6541 6 43.0001 6Z" fill="white"/>
<path d="M47.0001 2H17.0001C15.6981 2 14.5981 2 14.1841 4H43.0001C45.7571 4 48.0001 5.951 48.0001 8.708V45.524C49.1611 45.11 50.0001 44.01 50.0001 42.708V4.708C50.0001 3.053 48.6541 2 47.0001 2Z" fill="white"/>
<path d="M42 13C42 11.343 40.657 10 39 10H9C7.343 10 6 11.343 6 13V51C6 52.657 7.343 54 9 54H39C40.657 54 42 52.657 42 51V13ZM21.707 14.414L16.707 19.414C16.512 19.609 16.256 19.707 16 19.707C15.744 19.707 15.488 19.609 15.293 19.414L13.293 17.414L14.707 16L16 17.293L20.293 13L21.707 14.414ZM22 50.708C22 51.26 21.552 52 21 52H11C10.448 52 10 51.26 10 50.708V40.708C10 40.155 10.448 40 11 40H18V42H12V50H20V46H22V50.708ZM20.293 41L21.707 42.414L16.707 47.414C16.512 47.609 16.256 47.707 16 47.707C15.744 47.707 15.488 47.609 15.293 47.414L13.293 45.414L14.707 44L16 45.293L20.293 41ZM22 36.708C22 37.26 21.552 38 21 38H11C10.448 38 10 37.26 10 36.708V26.708C10 26.155 10.448 26 11 26H18V28H12V36H20V32H22V36.708ZM20.293 27L21.707 28.414L16.707 33.414C16.512 33.609 16.256 33.707 16 33.707C15.744 33.707 15.488 33.609 15.293 33.414L13.293 31.414L14.707 30L16 31.293L20.293 27ZM22 22.708C22 23.26 21.552 24 21 24H11C10.448 24 10 23.26 10 22.708V12.708C10 12.155 10.448 12 11 12H18V14H12V22H20V18H22V22.708ZM38 51H24V49H38V51ZM38 47H24V45H38V47ZM38 43H24V41H38V43ZM38 37H24V35H38V37ZM38 33H24V31H38V33ZM38 29H24V27H38V29ZM38 23H24V21H38V23ZM38 19H24V17H38V19ZM38 15H24V13H38V15Z" fill="#F14F22"/>
<path d="M47 0H17C14.554 0 12.521 1.622 12.092 3.946C10.064 4.321 8.467 5.845 8.092 7.873C5.768 8.302 4 10.262 4 12.708V50.708C4 53.464 6.243 56 9 56H39C41.446 56 43.479 54.086 43.908 51.762C45.936 51.387 47.533 49.717 47.908 47.689C50.232 47.259 52 45.153 52 42.708V4.708C52 1.951 49.757 0 47 0ZM42 51C42 52.657 40.657 54 39 54H9C7.343 54 6 52.657 6 51V13C6 11.343 7.343 10 9 10H39C40.657 10 42 11.343 42 13V51ZM46 46.708C46 48.01 45.161 49.11 44 49.524V12.708C44 9.951 41.757 8 39 8H10.184C10.598 6 11.698 6 13 6H43C44.654 6 46 7.053 46 8.708V46.708ZM50 42.708C50 44.01 49.161 45.11 48 45.524V8.708C48 5.951 45.757 4 43 4H14.184C14.598 2 15.698 2 17 2H47C48.654 2 50 3.053 50 4.708V42.708Z" fill="#E8E8E8"/>
<path d="M14.707 16L13.293 17.414L15.293 19.414C15.488 19.609 15.744 19.707 16 19.707C16.256 19.707 16.512 19.609 16.707 19.414L21.707 14.414L20.293 13L16 17.293L14.707 16Z" fill="#E8E8E8"/>
<path d="M20 22H12V14H18V12H11C10.448 12 10 12.155 10 12.708V22.708C10 23.26 10.448 24 11 24H21C21.552 24 22 23.26 22 22.708V18H20V22Z" fill="#E8E8E8"/>
<path d="M14.707 30L13.293 31.414L15.293 33.414C15.488 33.609 15.744 33.707 16 33.707C16.256 33.707 16.512 33.609 16.707 33.414L21.707 28.414L20.293 27L16 31.293L14.707 30Z" fill="#E8E8E8"/>
<path d="M20 36H12V28H18V26H11C10.448 26 10 26.155 10 26.708V36.708C10 37.26 10.448 38 11 38H21C21.552 38 22 37.26 22 36.708V32H20V36Z" fill="#E8E8E8"/>
<path d="M14.707 44L13.293 45.414L15.293 47.414C15.488 47.609 15.744 47.707 16 47.707C16.256 47.707 16.512 47.609 16.707 47.414L21.707 42.414L20.293 41L16 45.293L14.707 44Z" fill="#E8E8E8"/>
<path d="M20 50H12V42H18V40H11C10.448 40 10 40.155 10 40.708V50.708C10 51.26 10.448 52 11 52H21C21.552 52 22 51.26 22 50.708V46H20V50Z" fill="#E8E8E8"/>
<path d="M38 13H24V15H38V13Z" fill="#E8E8E8"/>
<path d="M38 17H24V19H38V17Z" fill="#E8E8E8"/>
<path d="M38 21H24V23H38V21Z" fill="#E8E8E8"/>
<path d="M38 27H24V29H38V27Z" fill="#E8E8E8"/>
<path d="M38 31H24V33H38V31Z" fill="#E8E8E8"/>
<path d="M38 35H24V37H38V35Z" fill="#E8E8E8"/>
<path d="M38 41H24V43H38V41Z" fill="#E8E8E8"/>
<path d="M38 45H24V47H38V45Z" fill="#E8E8E8"/>
<path d="M38 49H24V51H38V49Z" fill="#E8E8E8"/>
</svg>
