<svg width="56" height="56" viewBox="0 0 56 56" fill="none" xmlns="http://www.w3.org/2000/svg">
<path d="M30.2211 17.263C30.2443 17.6234 30.2327 17.8327 30.2327 17.8327C23.8731 17.8327 19.083 14.4378 19.083 14.4378C19.083 17.3444 8.92158 17.8327 8.92158 17.8327C8.92158 17.8327 8.40993 5.71802 19.5712 5.71802C23.687 5.71802 26.2099 7.369 27.7678 9.46177C29.8606 12.2753 30.1862 15.8794 30.2211 17.263Z" fill="#F2F2F2"/>
<path d="M36.0456 5.71802C47.1837 5.71802 46.6953 17.8327 46.6953 17.8327C40.3357 17.8327 35.5573 14.4378 35.5573 14.4378C35.5573 15.9376 32.8484 16.7863 30.2324 17.263H30.2207C30.1859 15.8794 29.8603 12.2753 27.7676 9.46165L27.9071 9.35704C29.4651 7.32247 31.9763 5.71802 36.0456 5.71802Z" fill="#F2F2F2"/>
<path d="M37.9758 47.8521C37.9758 47.8521 37.9642 44.1898 32.7207 41.2832L33.6159 38.6556L33.6625 38.5393C34.4414 38.8765 35.3949 39.1439 36.4296 39.1439C37.2317 39.1439 37.9294 38.9811 38.499 38.7486L39.9175 43.0156L37.9758 48.8171C37.9758 48.2242 37.9758 47.8521 37.9758 47.8521Z" fill="white"/>
<path d="M21.9896 38.6556L23.4429 43.0155L21.0246 50.282H18.118L15.6997 43.0155L17.153 38.6556L17.1879 38.5858C17.8739 38.9113 18.676 39.1439 19.5713 39.1439C20.4665 39.1439 21.2687 38.9113 21.9547 38.5858L21.9896 38.6556Z" fill="white"/>
<path d="M31.3949 37.1093C31.3949 37.1093 32.2785 37.9348 33.662 38.5394L33.6155 38.6557L32.7203 41.2833C31.639 40.6787 30.3485 40.1207 28.779 39.6208C28.779 39.6208 28.465 39.458 28 39.1907C29.0232 38.6324 30.6625 37.9232 31.3949 37.1093Z" fill="#E7ECED"/>
<path d="M37.9756 48.8171L39.9172 43.0156L38.4988 38.7486C39.9637 38.1557 40.6962 37.1093 40.6962 37.1093C41.7542 38.2952 45.6373 39.6207 45.6373 39.6207C54.8106 42.5273 54.8338 47.8521 54.8338 47.8521C54.8338 47.8521 54.8338 48.9217 54.8338 50.2821H37.9756C37.9756 49.7239 37.9756 49.224 37.9756 48.8171Z" fill="#F14F22"/>
<path d="M32.7205 41.2832C37.964 44.1898 37.9757 47.8521 37.9757 47.8521C37.9757 47.8521 37.9757 48.2242 37.9757 48.8171L37.4874 50.2821H21.0244L23.4427 43.0156L21.9894 38.6557L21.9545 38.5859C23.4776 37.8651 24.4193 36.7141 24.4193 36.7141C25.1518 37.5396 26.9539 38.6092 28.0003 39.1905C28.4654 39.458 28.7792 39.6207 28.7792 39.6207C30.3488 40.1205 31.6394 40.6786 32.7205 41.2832Z" fill="#F14F22"/>
<path d="M15.6995 43.0155L18.1178 50.282H1.1665C1.1665 48.9216 1.1665 47.852 1.1665 47.852C1.1665 47.852 1.25957 42.562 10.3746 39.6206C10.3746 39.6206 13.6649 37.8998 14.7229 36.714C14.7229 36.714 15.6646 37.865 17.1877 38.5858L17.1528 38.6556L15.6995 43.0155Z" fill="#F14F22"/>
<path d="M14.7929 33.6679C16.1881 34.3887 17.7926 34.784 19.5714 34.784C21.3502 34.784 22.9546 34.3887 24.3498 33.6679L24.4196 33.8073V36.7139C24.4196 36.7139 23.4778 37.8649 21.9548 38.5858C21.2688 38.9113 20.4666 39.1439 19.5714 39.1439C18.6761 39.1439 17.874 38.9113 17.188 38.5858C15.6649 37.8649 14.7231 36.7139 14.7231 36.7139V33.8073L14.7929 33.6679Z" fill="white"/>
<path d="M38.4987 38.7486C37.929 38.9812 37.2314 39.1439 36.4293 39.1439C35.3945 39.1439 34.4411 38.8765 33.6621 38.5393C32.2786 37.9347 31.395 37.1092 31.395 37.1092V33.726C32.7554 34.412 34.3248 34.784 36.0456 34.784C37.7663 34.784 39.3359 34.412 40.6961 33.726V37.1092C40.6961 37.1092 39.9637 38.1557 38.4987 38.7486Z" fill="white"/>
<path d="M49.6019 22.181C49.6019 23.518 48.2998 25.0876 46.6953 25.0876L46.5674 25.0644C46.6488 24.4482 46.6953 23.8087 46.6953 23.1576V20.251C48.2997 20.251 49.6019 20.8439 49.6019 22.181Z" fill="#FFD7A3"/>
<path d="M8.92125 23.1576C8.92125 23.8087 8.96778 24.4481 9.04919 25.0644L8.92125 25.0876C7.3168 25.0876 6.01465 23.518 6.01465 22.181C6.01465 20.8439 7.3168 20.251 8.92125 20.251V23.1576Z" fill="#FFD7A3"/>
<path d="M33.139 22.181C33.139 23.518 31.8369 25.0876 30.2324 25.0876L30.1045 25.0644C30.1859 24.4482 30.2324 23.8087 30.2324 23.1576V20.251C31.8369 20.251 33.139 20.8439 33.139 22.181Z" fill="#FFD7A3"/>
<path d="M40.6962 33.7261C39.3359 34.4121 37.7664 34.7841 36.0456 34.7841C34.3249 34.7841 32.7553 34.4121 31.3951 33.7261C30.0232 33.0634 28.8489 32.0867 27.9072 30.8892L27.7793 30.7846C29.0117 29.2033 29.8023 27.2385 30.1046 25.0643L30.2326 25.0876C31.837 25.0876 33.1392 23.518 33.1392 22.181C33.1392 20.8439 31.837 20.251 30.2326 20.251V17.8327C30.2326 17.8327 30.2442 17.6235 30.2209 17.263H30.2326C32.8485 16.7863 35.5574 15.9376 35.5574 14.4378C35.5574 14.4378 40.3359 17.8327 46.6955 17.8327V20.251V23.1576C46.6955 23.8087 46.649 24.4481 46.5676 25.0643C46.0444 28.9359 43.9167 32.1565 40.6962 33.7261Z" fill="#F2F2F2"/>
<path d="M30.2323 20.251V23.1576C30.2323 23.8087 30.1858 24.4481 30.1044 25.0644C29.8021 27.2385 29.0114 29.2034 27.779 30.7846C26.8721 31.9938 25.7096 32.982 24.3492 33.668C22.954 34.3889 21.3496 34.7841 19.5708 34.7841C17.792 34.7841 16.1875 34.3889 14.7923 33.668C11.6531 32.0752 9.57203 28.878 9.04884 25.0645C8.96743 24.4483 8.9209 23.8089 8.9209 23.1577V20.2511V17.8328C8.9209 17.8328 19.0823 17.3445 19.0823 14.4379C19.0823 14.4379 23.8723 17.8328 30.2321 17.8328V20.251H30.2323Z" fill="#F2F2F2"/>
<path d="M32.6507 44.7559H25.8726V47.0885H32.6507V44.7559Z" fill="#231F20"/>
<path d="M46.0024 38.5129C44.6945 38.065 42.7254 37.2338 41.8623 36.5929V34.4276C44.8049 32.7431 46.8364 29.7924 47.5661 26.1509C49.4468 25.7017 50.7681 23.8554 50.7681 22.1811C50.7681 20.6155 49.6598 19.5117 47.8615 19.1854V17.8538C47.8775 17.3642 47.9845 11.564 44.326 7.75516C42.2843 5.6295 39.4983 4.55174 36.0455 4.55174C32.5985 4.55174 29.8302 5.61026 27.7975 7.70128C25.7677 5.61061 23.0077 4.55174 19.5708 4.55174C16.1071 4.55174 13.3152 5.63207 11.2727 7.76274C7.62466 11.568 7.73767 17.3522 7.75481 17.8542V19.1854C5.95665 19.5117 4.84822 20.6155 4.84822 22.1811C4.84822 23.8559 6.17019 25.7029 8.05187 26.1513C8.77029 29.7054 10.7313 32.6134 13.5563 34.3149V36.2238C12.7117 36.9578 10.9862 37.9778 9.91943 38.5421C0.21891 41.7108 0.00454848 47.5824 0.000233256 47.8316C0.000116628 47.8384 0 47.8453 0 47.852V50.282C0 50.9261 0.522259 51.4482 1.16628 51.4482H54.8337C55.4777 51.4482 56 50.9261 56 50.282V47.847C55.9988 47.595 55.86 41.6414 46.0024 38.5129ZM19.571 35.9503C20.8668 35.9503 22.0999 35.7595 23.2528 35.3847V36.2548C22.9195 36.5846 22.2872 37.1379 21.4543 37.5321C20.2083 38.1234 18.9342 38.1237 17.6864 37.5316C16.8557 37.1385 16.2227 36.5844 15.8889 36.2543V35.3842C17.0441 35.7598 18.2762 35.9503 19.571 35.9503ZM31.3987 21.5823C31.7168 21.6925 31.9727 21.8759 31.9727 22.1811C31.9727 22.5483 31.7488 23.0188 31.3949 23.3785C31.396 23.3049 31.3987 21.5823 31.3987 21.5823ZM27.8084 32.5456C28.5349 33.2931 29.3445 33.9226 30.2286 34.4281V36.5992C29.7107 37.0009 28.874 37.4275 28.2307 37.7554C28.1601 37.7915 28.0905 37.8269 28.022 37.862C26.9456 37.2388 26.0858 36.6603 25.5853 36.2241V34.316C26.402 33.8255 27.1451 33.2337 27.8084 32.5456ZM39.5297 36.679C39.2687 36.9481 38.7745 37.3787 38.058 37.6688C37.5558 37.8737 37.0077 37.9776 36.429 37.9776C35.6802 37.9776 34.9051 37.8065 34.1289 37.4706C33.4433 37.171 32.8971 36.8063 32.5612 36.5552V35.4448C33.6559 35.78 34.8214 35.9502 36.0455 35.9502C37.2696 35.9502 38.435 35.78 39.5297 35.4448V36.679ZM31.4276 38.6132C31.6536 38.771 31.9217 38.9446 32.2257 39.1187L32.05 39.6341C31.6255 39.4364 31.1824 39.2479 30.7185 39.068C30.9644 38.9231 31.2039 38.7723 31.4276 38.6132ZM16.9285 43.0158L17.9054 40.0853C19.0073 40.3776 20.1351 40.3775 21.2364 40.0854L22.2133 43.0158L20.1833 49.1158H18.9587L16.9285 43.0158ZM24.5489 42.6467L23.3754 39.1264C23.7998 38.8543 24.165 38.5699 24.4594 38.314C25.3384 38.9964 26.4879 39.6842 27.426 40.2057C27.9034 40.4801 28.2284 40.6489 28.242 40.656C28.3008 40.6864 28.3619 40.7118 28.4249 40.7319C29.8627 41.1899 31.0815 41.7032 32.1548 42.3032C36.6027 44.7689 36.801 47.6774 36.809 47.8669V48.6277L36.6463 49.1157H22.6415L24.5491 43.3838C24.6288 43.1446 24.6288 42.8859 24.5489 42.6467ZM34.1296 40.7629L34.3806 40.0266C35.0653 40.2147 35.7507 40.3103 36.4292 40.3103C36.8786 40.3103 37.3183 40.2677 37.7447 40.1843L38.6877 43.0143L38.1197 44.7115C37.4053 43.4862 36.1915 42.0659 34.1296 40.7629ZM45.529 23.1576C45.529 23.7288 45.4894 24.319 45.4116 24.9082C44.9316 28.4609 43.0264 31.2929 40.1852 32.6777C40.1804 32.68 40.1757 32.6824 40.1709 32.6847C38.9432 33.3039 37.5552 33.6177 36.0456 33.6177C34.5359 33.6177 33.1479 33.3038 31.9202 32.6847C31.9143 32.6818 31.9083 32.6789 31.9024 32.6759C30.9169 32.1999 30.0359 31.5329 29.2723 30.6937C30.1364 29.3637 30.7577 27.8224 31.0997 26.1519C32.9825 25.7043 34.3054 23.8566 34.3054 22.1812C34.3054 20.6156 33.197 19.5118 31.3988 19.1855V18.2216C33.1705 17.8408 35.0881 17.2326 36.0669 16.1222C37.7892 17.093 41.2416 18.7064 45.5292 18.9639V23.1576H45.529ZM48.4356 22.1811C48.4356 22.5483 48.2117 23.0188 47.8579 23.3785C47.8589 23.3049 47.8616 21.5823 47.8616 21.5823C48.1796 21.6925 48.4356 21.8757 48.4356 22.1811ZM36.0455 6.8843C38.8334 6.8843 41.0503 7.7176 42.6343 9.36112C44.804 11.6122 45.3529 14.8934 45.4885 16.6216C40.2 16.2423 36.273 13.5156 36.2325 13.4871C35.8767 13.2344 35.4096 13.2013 35.022 13.4016C34.6344 13.6017 34.3907 14.0016 34.3907 14.4379C34.3907 14.59 33.8025 15.2509 31.2914 15.8509C31.1099 14.1893 30.607 11.7665 29.2484 9.57094C30.8542 7.78921 33.1359 6.8843 36.0455 6.8843ZM12.9565 9.37687C14.5421 7.72285 16.7676 6.88418 19.571 6.88418C22.7718 6.88418 25.2149 7.98561 26.8317 10.1577C28.4762 12.3686 28.9077 15.1765 29.0192 16.6209C23.7315 16.2398 19.7975 13.5147 19.757 13.4861C19.4011 13.234 18.9342 13.2014 18.5471 13.4016C18.1596 13.6018 17.9164 14.0015 17.9164 14.4376C17.9164 14.606 17.1845 15.4268 13.803 16.0756C12.4484 16.3356 11.0785 16.4891 10.1261 16.5744C10.2607 14.843 10.8074 11.6187 12.9565 9.37687ZM7.75481 21.5823C7.75481 21.5823 7.7575 23.3049 7.75855 23.3785C7.4047 23.0188 7.18077 22.5483 7.18077 22.1811C7.18077 21.8757 7.43677 21.6925 7.75481 21.5823ZM10.2053 24.9116C10.127 24.3198 10.0874 23.7297 10.0874 23.1576V18.9203C11.0913 18.8361 12.6475 18.6714 14.2207 18.3707C15.3571 18.1536 18.2637 17.5982 19.5813 16.1146C21.3017 17.0843 24.7663 18.7055 29.066 18.9637V23.1575C29.066 23.7287 29.0263 24.3189 28.9492 24.9036C28.6745 26.88 27.9516 28.6657 26.8591 30.0675C26.8547 30.0732 26.8504 30.0789 26.8461 30.0846C26.0314 31.1709 25.0147 32.026 23.814 32.6316C22.5477 33.2859 21.12 33.6176 19.5708 33.6176C18.0216 33.6176 16.594 33.2859 15.3201 32.6277C12.5495 31.222 10.6847 28.4074 10.2053 24.9116ZM2.33256 47.8784C2.34084 47.7537 2.43857 46.7045 3.41871 45.3508C5.18341 42.9134 10.8564 40.6847 10.9148 40.6541C11.1989 40.5056 13.2648 39.4124 14.6809 38.3128C14.9756 38.569 15.3412 38.8541 15.7662 39.1265L14.5928 42.6468C14.513 42.886 14.513 43.1447 14.5927 43.3839L16.5003 49.1158H2.33256V47.8784ZM53.6674 49.1157H39.1417V49.0118L41.0231 43.3855C41.1032 43.1461 41.1035 42.8871 41.0238 42.6474L39.9211 39.3304C40.2663 39.1181 40.5609 38.8954 40.8021 38.686C42.3451 39.699 44.7051 40.5347 45.2604 40.7242C45.2686 40.727 50.8592 42.8941 52.6067 45.3326C53.5908 46.7057 53.6629 47.7696 53.6674 47.8679V49.1157Z" fill="#231F20"/>
<path d="M49.1136 44.7559H42.3354V47.0885H49.1136V44.7559Z" fill="#231F20"/>
</svg>
