<svg width="56" height="56" viewBox="0 0 56 56" fill="none" xmlns="http://www.w3.org/2000/svg">
<g clip-path="url(#clip0_62_164)">
<path d="M47.8335 2.33333H8.16683C7.54799 2.33333 6.9545 2.57917 6.51691 3.01675C6.07933 3.45434 5.8335 4.04783 5.8335 4.66667V50.1667C5.8335 50.4761 5.95641 50.7728 6.17521 50.9916C6.394 51.2104 6.69074 51.3333 7.00016 51.3333C7.30538 51.3176 7.59497 51.1935 7.81683 50.9833L15.1668 45.6167L20.1835 50.9833C20.4016 51.1971 20.6948 51.3168 21.0002 51.3168C21.3055 51.3168 21.5987 51.1971 21.8168 50.9833L28.0002 45.6167L34.1835 50.9833C34.4016 51.1971 34.6948 51.3168 35.0002 51.3168C35.3055 51.3168 35.5987 51.1971 35.8168 50.9833L40.8335 45.6167L48.1835 50.9833C48.4054 51.1935 48.6949 51.3176 49.0002 51.3333C49.3096 51.3333 49.6063 51.2104 49.8251 50.9916C50.0439 50.7728 50.1668 50.4761 50.1668 50.1667V4.66667C50.1668 4.04783 49.921 3.45434 49.4834 3.01675C49.0458 2.57917 48.4523 2.33333 47.8335 2.33333ZM28.0002 35H18.6668C18.048 35 17.4545 34.7542 17.0169 34.3166C16.5793 33.879 16.3335 33.2855 16.3335 32.6667C16.3335 32.0478 16.5793 31.4543 17.0169 31.0168C17.4545 30.5792 18.048 30.3333 18.6668 30.3333H28.0002C28.619 30.3333 29.2125 30.5792 29.6501 31.0168C30.0877 31.4543 30.3335 32.0478 30.3335 32.6667C30.3335 33.2855 30.0877 33.879 29.6501 34.3166C29.2125 34.7542 28.619 35 28.0002 35ZM28.0002 25.6667H18.6668C18.048 25.6667 17.4545 25.4208 17.0169 24.9832C16.5793 24.5457 16.3335 23.9522 16.3335 23.3333C16.3335 22.7145 16.5793 22.121 17.0169 21.6834C17.4545 21.2458 18.048 21 18.6668 21H28.0002C28.619 21 29.2125 21.2458 29.6501 21.6834C30.0877 22.121 30.3335 22.7145 30.3335 23.3333C30.3335 23.9522 30.0877 24.5457 29.6501 24.9832C29.2125 25.4208 28.619 25.6667 28.0002 25.6667ZM28.0002 16.3333H18.6668C18.048 16.3333 17.4545 16.0875 17.0169 15.6499C16.5793 15.2123 16.3335 14.6188 16.3335 14C16.3335 13.3812 16.5793 12.7877 17.0169 12.3501C17.4545 11.9125 18.048 11.6667 18.6668 11.6667H28.0002C28.619 11.6667 29.2125 11.9125 29.6501 12.3501C30.0877 12.7877 30.3335 13.3812 30.3335 14C30.3335 14.6188 30.0877 15.2123 29.6501 15.6499C29.2125 16.0875 28.619 16.3333 28.0002 16.3333ZM37.3335 35H35.0002C34.3813 35 33.7878 34.7542 33.3502 34.3166C32.9127 33.879 32.6668 33.2855 32.6668 32.6667C32.6668 32.0478 32.9127 31.4543 33.3502 31.0168C33.7878 30.5792 34.3813 30.3333 35.0002 30.3333H37.3335C37.9523 30.3333 38.5458 30.5792 38.9834 31.0168C39.421 31.4543 39.6668 32.0478 39.6668 32.6667C39.6668 33.2855 39.421 33.879 38.9834 34.3166C38.5458 34.7542 37.9523 35 37.3335 35ZM37.3335 25.6667H35.0002C34.3813 25.6667 33.7878 25.4208 33.3502 24.9832C32.9127 24.5457 32.6668 23.9522 32.6668 23.3333C32.6668 22.7145 32.9127 22.121 33.3502 21.6834C33.7878 21.2458 34.3813 21 35.0002 21H37.3335C37.9523 21 38.5458 21.2458 38.9834 21.6834C39.421 22.121 39.6668 22.7145 39.6668 23.3333C39.6668 23.9522 39.421 24.5457 38.9834 24.9832C38.5458 25.4208 37.9523 25.6667 37.3335 25.6667ZM37.3335 16.3333H35.0002C34.3813 16.3333 33.7878 16.0875 33.3502 15.6499C32.9127 15.2123 32.6668 14.6188 32.6668 14C32.6668 13.3812 32.9127 12.7877 33.3502 12.3501C33.7878 11.9125 34.3813 11.6667 35.0002 11.6667H37.3335C37.9523 11.6667 38.5458 11.9125 38.9834 12.3501C39.421 12.7877 39.6668 13.3812 39.6668 14C39.6668 14.6188 39.421 15.2123 38.9834 15.6499C38.5458 16.0875 37.9523 16.3333 37.3335 16.3333Z" fill="#F14F22"/>
</g>
<defs>
<clipPath id="clip0_62_164">
<rect width="56" height="56" fill="white"/>
</clipPath>
</defs>
</svg>
